# xmcd
#
# Track frame offsets:
# 225
# 18416
# 36461
# 55331
# 75938
# 91130
# 111552
# 124250
# 145432
# 158869
#
# Disc length: 2394 seconds
#
#
# Revision: 0
# Processed by: cddbd v1.5.1PL0 Copyright (c) Steve Scherf et al.
# Submitted via: FreeRIP 2.942 
#
DISCID=8609570a
DTITLE=Rupert John - First Cut
DYEAR=1999
DGENRE=Blues
TTITLE0=Baby Baby
TTITLE1=Anthony Hill
TTITLE2=Billie
TTITLE3=I Don't Know
TTITLE4=One Love
TTITLE5=Hey Joe
TTITLE6=Closed Book
TTITLE7=Sister Mary
TTITLE8=Show Me a Light
TTITLE9=Price of Love
EXTD=
EXTT0=
EXTT1=
EXTT2=
EXTT3=
EXTT4=
EXTT5=
EXTT6=
EXTT7=
EXTT8=
EXTT9=
PLAYORDER=
